<svg width="93" height="93" xmlns="http://www.w3.org/2000/svg"><defs><linearGradient x1="17.141%" y1="106.906%" x2="82.859%" y2="-6.906%" id="a"><stop stop-color="#6ECC82" offset="0%"/><stop stop-color="#4BA86B" offset="57%"/><stop stop-color="#34915C" offset="100%"/></linearGradient><linearGradient x1="50%" y1=".033%" x2="50%" y2="100.035%" id="b"><stop stop-color="#6ECC82" offset="0%"/><stop stop-color="#50AD6E" offset="40%"/><stop stop-color="#3B9961" offset="76%"/><stop stop-color="#34915C" offset="100%"/></linearGradient><linearGradient x1="50%" y1="-.085%" x2="50%" y2="100.051%" id="c"><stop stop-color="#6ECC82" offset="0%"/><stop stop-color="#66C47D" offset="25%"/><stop stop-color="#4FAD6E" offset="63%"/><stop stop-color="#34915C" offset="100%"/></linearGradient><linearGradient x1="50%" y1="0%" x2="50%" y2="100.05%" id="d"><stop stop-color="#6ECC82" offset="0%"/><stop stop-color="#6CCA81" offset="45%"/><stop stop-color="#65C37C" offset="64%"/><stop stop-color="#58B674" offset="79%"/><stop stop-color="#47A468" offset="91%"/><stop stop-color="#34915C" offset="100%"/></linearGradient></defs><g fill="none" fill-rule="evenodd"><rect fill="#FFF" width="93" height="93" rx="9"/><rect fill="url(#a)" fill-rule="nonzero" x="4" y="4.03" width="85" height="85" rx="6"/><path d="M4 10v73a6 6 0 0 0 6 6h73a6 6 0 0 0 6-6V66.57C63.86 81 48 58 42 32 35.06 2 10 4 10 4a6 6 0 0 0-6 6z" fill="url(#b)" fill-rule="nonzero"/><path d="M10 88h73a6 6 0 0 0 6-6V29C78.13 56 55 71 41 74c-16.42 3.55-28.56-.39-37-5.86V82a6 6 0 0 0 6 6z" fill="url(#c)" fill-rule="nonzero"/><path d="M10 89h73a6 6 0 0 0 6-6V70.78C61.89 91.19 43.66 65 37 53 28.17 37.11 14.71 30.79 4 28.87V83a6 6 0 0 0 6 6z" fill="url(#d)" fill-rule="nonzero"/><path d="M46.93 22.55H28.57A2.53 2.53 0 0 0 26 25.08v42.14a2.53 2.53 0 0 0 2.53 2.53H47.4c12.856.002 23.35-10.286 23.6-23.14.25-13.23-10.83-24.06-24.07-24.06z" fill="#FFF" fill-rule="nonzero"/></g></svg>