<?xml version="1.0" encoding="UTF-8"?>
<svg enable-background="new 0 0 470 310" version="1.1" viewBox="0 0 470 310" xml:space="preserve" xmlns="http://www.w3.org/2000/svg" width="120px">
<style type="text/css">
	.st0{fill:#0BAF7C;}
	.st1{fill:#050505;stroke:#050505;stroke-width:5.0426;stroke-miterlimit:10;}
</style>
	<polygon class="st0" points="313.9 244.1 43.5 243.8 43.5 268.8 330.9 269.1"/>
	<path class="st0" d="m421.6 164.3l0.1-133.1h-27l-0.1 132c15.3-12.5 23.2-5.6 27 1.1z"/>
<circle class="st0" cx="143" cy="106.7" r="11.1"/>
<path class="st0" d="m175.8 123c0 16.6 13.4 30 30 30.1 16.6 0 30-13.4 30.1-30v-2.5l-60-0.1-0.1 2.5z"/>
	<polygon class="st0" points="314 250.6 12 250.3 12.2 5.3 399.2 5.7 399 185.2 390 185.2 390.2 14.7 21.2 14.3 21 241.3 314 241.6"/>
	<path class="st0" d="m428.6 303.7l-70-0.1-38.5-38.6c-4.9-5.6-14.1-22.6-14.1-26 0-1.5-0.1-3.4-0.2-5.8-0.6-15.7-0.6-30.3 5.5-36.6 2-2 4.4-3.1 7.2-3.1 5.2 0 9.8 1.9 13.2 5.5 7.7 8 7.3 21.7 7.2 23.2l-9-0.4c0.1-3.1-0.5-12.2-4.8-16.7-1.7-1.8-3.9-2.7-6.7-2.7-0.2 0-0.4 0-0.7 0.3-3.9 4.1-3.3 22.3-3 30.1 0.1 2.1 0.1 3.9 0.2 5.4 1.2 2.9 7.2 15.3 11.8 20.7l35.5 35.6 61.9 0.1c3.3-4.3 12.1-16.5 19.1-30.8 4.7-9.6 7.2-20.4 7.2-31.1v-46.1h9v46.1c0 12.1-2.8 24.2-8.1 35-9.1 18.7-21 33.6-21.5 34.2l-1.2 1.8z"/>
	<path class="st0" d="m339 223.6h-9v-40c0-5.2 2-10.1 5.6-13.8s8.5-5.7 13.6-5.7c10.6 0 19.2 8.8 19.2 19.5v24h-9v-24c0-5.8-4.6-10.5-10.2-10.5-2.7 0-5.3 1.1-7.2 3-2 2-3 4.6-3 7.4v40.1z"/>
	<path class="st0" d="m459.5 207.5h-9v-24c0-5.8-4.7-10.5-10.5-10.5s-10.5 4.7-10.5 10.5v24h-9v-24c0-10.8 8.7-19.5 19.5-19.5s19.5 8.7 19.5 19.5v24z"/>
	<path class="st0" d="m429.5 196.7h-9v-24c0-5.8-4.8-10.5-10.7-10.5s-10.7 4.7-10.7 10.5v24h-9v-24c0-10.7 8.9-19.5 19.7-19.5 10.9 0 19.7 8.8 19.7 19.5v24z"/>
	<path class="st0" d="m389.7 196.6l-0.1-24c0-2.8-1.1-5.4-3.1-7.4s-4.6-3-7.4-3h-0.1c-2.8 0-5.4 1.1-7.4 3.1s-3 4.6-3 7.4v13.4h-9v-13.4c0-5.2 2-10.1 5.6-13.8 3.7-3.7 8.5-5.8 13.8-5.8 5.2 0 10.1 2 13.8 5.6 3.7 3.7 5.8 8.5 5.8 13.8l0.1 24-9 0.1z"/>
	<rect class="st0" transform="matrix(.9858 -.1677 .1677 .9858 -35.667 65.065)" x="363" y="220" width="9" height="47.4"/>
		<rect class="st0" transform="matrix(.1686 -.9857 .9857 .1686 110.3 618)" x="397.8" y="239.1" width="47.4" height="9"/>
	<rect class="st0" x="390" y="214.2" width="9" height="48.5"/>
<path class="st1" d="m373.4 324.4"/>
<path class="st1" d="m351.4 289.1"/>
<circle class="st0" cx="268" cy="106.8" r="11.1"/>
</svg>
