<?xml version="1.0" encoding="UTF-8"?>
<svg enable-background="new 0 0 653.4 219.7" version="1.1" viewBox="0 0 653.4 219.7" xml:space="preserve" xmlns="http://www.w3.org/2000/svg" width="124px">
<style type="text/css">
	.st0{fill:#0BAF7C;}
	.st1{fill:#050505;stroke:#050505;stroke-width:3.3319;stroke-miterlimit:10;}
	.st2{fill:#050505;stroke:#050505;stroke-width:7.9291;stroke-miterlimit:10;}
</style>
	<path class="st0" d="m360.6 69.5h32.8v11.2h2.8c1.5-4.3 3.9-7.6 7.4-9.9s7.7-3.5 12.6-3.5c7.7 0 13.9 2.4 18.6 7.3 4.7 4.8 7 12.2 7 22.1v3.4l-20.3 1.9v-2.2c0-4.3-1.1-7.7-3.3-10.2s-5.5-3.8-9.8-3.8-7.8 1.5-10.3 4.5-3.7 7.3-3.7 12.9v25h17.8v18.7h-53.4v-18.7h15.9v-40h-14v-18.7z"/>
	<path class="st0" d="m477.8 146.9h-19.7v-109.2h19.7v43.1h2.8c2.1-4.3 5.1-7.6 9-9.9 4-2.3 9-3.5 15.1-3.5 4.6 0 8.9 0.9 13 2.7s7.7 4.3 10.8 7.7 5.5 7.5 7.3 12.4 2.7 10.5 2.7 16.7v2.8c0 6.3-0.9 12-2.7 16.8-1.8 4.9-4.2 9-7.2 12.4s-6.6 5.9-10.7 7.6-8.6 2.6-13.3 2.6c-3.5 0-6.6-0.4-9.2-1.1s-4.9-1.7-6.8-3c-1.9-1.2-3.5-2.7-4.8-4.3s-2.4-3.3-3.4-5.1h-2.8v11.3zm20.6-16.6c6.1 0 11.1-1.9 14.9-5.7s5.7-9 5.7-15.5v-1.9c0-6.6-1.9-11.7-5.7-15.5s-8.8-5.7-14.9-5.7-11.1 1.9-14.9 5.8-5.7 9-5.7 15.4v1.9c0 6.3 1.9 11.5 5.7 15.4s8.8 5.8 14.9 5.8z"/>
	<path class="st0" d="m614 135.6h-2.8c-0.8 1.8-1.8 3.5-3 5.1s-2.8 3-4.7 4.3c-1.9 1.2-4.2 2.2-6.9 3-2.7 0.7-5.8 1.1-9.6 1.1-4.8 0-9.2-0.9-13.3-2.6s-7.7-4.3-10.8-7.6c-3.1-3.4-5.5-7.5-7.2-12.4s-2.6-10.5-2.6-16.8v-2.8c0-6.2 0.9-11.8 2.7-16.7s4.3-9 7.5-12.4 6.9-6 11.1-7.7c4.2-1.8 8.7-2.7 13.3-2.7 6.2 0 11.2 1.2 14.8 3.5s6.5 5.6 8.6 9.9h2.8v-43.1h19.7v109.2h-19.6v-11.3zm-20.6-5.3c6.1 0 11.1-1.9 14.9-5.9 3.8-3.9 5.7-9 5.7-15.4v-1.9c0-6.3-1.9-11.5-5.7-15.4s-8.8-5.8-14.9-5.8-11.1 1.9-14.9 5.7-5.7 9-5.7 15.5v1.9c0 6.6 1.9 11.7 5.7 15.5 3.8 3.9 8.8 5.8 14.9 5.8z"/>
<path class="st1" d="m217.6 200.8"/>
<path class="st1" d="m242 200.9"/>
	<polygon class="st0" points="217.1 171.2 38.5 171 38.5 187.5 228.4 187.7"/>
	<path class="st0" d="m288.3 118.5 0.1-88h-17.8l-0.1 87.2c10.1-8.2 15.3-3.7 17.8 0.8z"/>
<ellipse class="st0" transform="matrix(.7078 -.7064 .7064 .7078 -26.323 97.102)" cx="104.2" cy="80.4" rx="7.3" ry="7.3"/>
<path class="st0" d="m125.9 91.1c0 11.4 9.7 20.7 21.3 19.8 10.4-0.8 18.3-9.7 18.3-20.2v-1.3h-39.7l0.1 1.7z"/>
	<path class="st0" d="m314.4 133.3v-2.1c0-7.7-6.2-13.9-13.9-13.9-2.5 0-4.8 0.7-6.8 1.8-0.7-1.8-1.8-3.5-3.2-4.9-2.7-2.6-6.2-4.1-9.9-4.1-2.1 0-4.2 0.5-6.1 1.4l0.1-98.8-257.8-0.3-0.2 163.9 197.9 0.2c2 3.6 4.3 7.4 5.9 9.2l25.8 25.9h47.2l1.2-1.5c0.3-0.4 8.5-10.6 14.6-23.3 3.4-7.1 5.2-15.1 5.2-23.1v-30.4zm-289.8 35 0.1-147.9 241.8 0.2-0.1 91c-1.9-1-4.1-1.5-6.4-1.5-5.9 0-10.9 3.8-12.9 9-2-1.1-4.2-1.7-6.6-1.7-3.7 0-7.1 1.5-9.7 4.1s-4 6.1-4 9.8v7.2c-1.9-1.1-4.2-1.7-6.6-1.7-2.1 0-4 0.8-5.5 2.4-4.3 4.5-4.3 14.3-3.9 25 0.1 1.5 0.1 2.8 0.1 3.8 0 0.2 0 0.4 0.1 0.6l-186.4-0.3zm277.4 15c-4.4 9.1-10 17.1-12.4 20.2h-40l-23.1-23.2c-2.9-3.4-6.6-11-7.5-13.2 0-1-0.1-2.1-0.1-3.4-0.4-11.1 0.1-17.5 1.6-19 1.5 0 2.6 0.5 3.5 1.4 2.2 2.3 2.8 6.8 2.9 9.2v2.2h8v-0.9-1.4-24.1c0-1.6 0.6-3.1 1.7-4.2s2.5-1.7 4-1.7c3.2 0 5.7 2.7 5.7 5.9v15.9h8v-14.2-8.9c0-3.3 2.6-5.9 5.9-5.9 1.6 0 3.1 0.6 4.2 1.7s1.7 2.6 1.8 4.2l0.1 15.9h0.2 8v-7.6-8.3c0-1.6 0.6-3 1.8-4.2 1.2-1.1 2.7-1.8 4.3-1.8s3.2 0.6 4.3 1.8c1.1 1.1 1.8 2.6 1.8 4.2v6.7 0.5 15.9h8v-7.1-9.2c0.3-3 2.8-5.4 5.9-5.4 3.3 0 5.9 2.7 5.9 5.9v15.8 16.7c-0.1 6.8-1.7 13.6-4.5 19.6z"/>
		<rect class="st0" transform="matrix(.9858 -.1677 .1677 .9858 -25.086 44.765)" x="248.6" y="155.3" width="8" height="31.4"/>
		<rect class="st0" transform="matrix(.1686 -.9857 .9857 .1686 71.245 426.18)" x="272.6" y="166.9" width="31.4" height="8"/>
	<rect class="st0" x="266.4" y="151.4" width="8" height="32"/>
<path class="st2" d="m242 200.9"/>
<ellipse class="st0" transform="matrix(.7078 -.7064 .7064 .7078 -2.2429 155.47)" cx="186.8" cy="80.4" rx="7.3" ry="7.3"/>
</svg>
